<svg width="49" height="48" viewBox="0 0 49 48" fill="none" xmlns="http://www.w3.org/2000/svg">
<path d="M24.5 0C24.9641 0 25.4092 0.180612 25.7374 0.502103C26.0656 0.823594 26.25 1.25963 26.25 1.71429V5.14286C26.25 5.59751 26.0656 6.03355 25.7374 6.35504C25.4092 6.67653 24.9641 6.85714 24.5 6.85714C24.0359 6.85714 23.5908 6.67653 23.2626 6.35504C22.9344 6.03355 22.75 5.59751 22.75 5.14286V1.71429C22.75 1.25963 22.9344 0.823594 23.2626 0.502103C23.5908 0.180612 24.0359 0 24.5 0ZM24.5 34.2857C27.2848 34.2857 29.9555 33.202 31.9246 31.2731C33.8938 29.3442 35 26.7279 35 24C35 21.2721 33.8938 18.6558 31.9246 16.7269C29.9555 14.798 27.2848 13.7143 24.5 13.7143C21.7152 13.7143 19.0445 14.798 17.0754 16.7269C15.1062 18.6558 14 21.2721 14 24C14 26.7279 15.1062 29.3442 17.0754 31.2731C19.0445 33.202 21.7152 34.2857 24.5 34.2857ZM47.25 25.7143C47.7141 25.7143 48.1592 25.5337 48.4874 25.2122C48.8156 24.8907 49 24.4547 49 24C49 23.5453 48.8156 23.1093 48.4874 22.7878C48.1592 22.4663 47.7141 22.2857 47.25 22.2857H43.75C43.2859 22.2857 42.8408 22.4663 42.5126 22.7878C42.1844 23.1093 42 23.5453 42 24C42 24.4547 42.1844 24.8907 42.5126 25.2122C42.8408 25.5337 43.2859 25.7143 43.75 25.7143H47.25ZM24.5 41.1429C24.9641 41.1429 25.4092 41.3235 25.7374 41.645C26.0656 41.9664 26.25 42.4025 26.25 42.8571V46.2857C26.25 46.7404 26.0656 47.1764 25.7374 47.4979C25.4092 47.8194 24.9641 48 24.5 48C24.0359 48 23.5908 47.8194 23.2626 47.4979C22.9344 47.1764 22.75 46.7404 22.75 46.2857V42.8571C22.75 42.4025 22.9344 41.9664 23.2626 41.645C23.5908 41.3235 24.0359 41.1429 24.5 41.1429ZM5.25 25.7143C5.71413 25.7143 6.15925 25.5337 6.48744 25.2122C6.81562 24.8907 7 24.4547 7 24C7 23.5453 6.81562 23.1093 6.48744 22.7878C6.15925 22.4663 5.71413 22.2857 5.25 22.2857H1.75C1.28587 22.2857 0.840752 22.4663 0.512563 22.7878C0.184374 23.1093 0 23.5453 0 24C0 24.4547 0.184374 24.8907 0.512563 25.2122C0.840752 25.5337 1.28587 25.7143 1.75 25.7143H5.25ZM7.511 7.35771C7.67356 7.19807 7.86667 7.07141 8.07928 6.98499C8.29189 6.89856 8.51981 6.85408 8.75 6.85408C8.98019 6.85408 9.20811 6.89856 9.42072 6.98499C9.63333 7.07141 9.82644 7.19807 9.989 7.35771L13.489 10.7863C13.6517 10.9457 13.7808 11.1349 13.8688 11.3431C13.9569 11.5514 14.0022 11.7746 14.0022 12C14.0022 12.2254 13.9569 12.4486 13.8688 12.6569C13.7808 12.8651 13.6517 13.0543 13.489 13.2137C13.3263 13.3731 13.1331 13.4995 12.9205 13.5858C12.708 13.6721 12.4801 13.7165 12.25 13.7165C12.0199 13.7165 11.792 13.6721 11.5795 13.5858C11.3669 13.4995 11.1737 13.3731 11.011 13.2137L7.511 9.78514C7.34803 9.6259 7.21873 9.43673 7.13051 9.22846C7.04228 9.02019 6.99687 8.79692 6.99687 8.57143C6.99687 8.34594 7.04228 8.12267 7.13051 7.9144C7.21873 7.70613 7.34803 7.51696 7.511 7.35771ZM9.989 40.6423C9.82652 40.8017 9.63359 40.9281 9.42121 41.0145C9.20884 41.1008 8.98118 41.1454 8.75124 41.1455C8.5213 41.1457 8.29357 41.1015 8.08107 41.0154C7.86857 40.9294 7.67546 40.8032 7.51275 40.644C7.35004 40.4848 7.22093 40.2958 7.13278 40.0878C7.04464 39.8798 6.99919 39.6567 6.99903 39.4315C6.99886 39.2063 7.04399 38.9832 7.13184 38.775C7.21968 38.5668 7.34852 38.3777 7.511 38.2183L11.011 34.7897C11.1735 34.6303 11.3664 34.5038 11.5788 34.4175C11.7912 34.3312 12.0188 34.2866 12.2488 34.2865C12.4787 34.2863 12.7064 34.3305 12.9189 34.4166C13.1314 34.5026 13.3245 34.6288 13.4872 34.788C13.65 34.9472 13.7791 35.1362 13.8672 35.3442C13.9554 35.5522 14.0008 35.7753 14.001 36.0005C14.0011 36.2258 13.956 36.4488 13.8682 36.657C13.7803 36.8652 13.6515 37.0543 13.489 37.2137L9.989 40.6423ZM41.489 7.35771C41.3264 7.19807 41.1333 7.07141 40.9207 6.98499C40.7081 6.89856 40.4802 6.85408 40.25 6.85408C40.0198 6.85408 39.7919 6.89856 39.5793 6.98499C39.3667 7.07141 39.1736 7.19807 39.011 7.35771L35.511 10.7863C35.1824 11.1082 34.9978 11.5448 34.9978 12C34.9978 12.4552 35.1824 12.8918 35.511 13.2137C35.8396 13.5356 36.2853 13.7165 36.75 13.7165C37.2147 13.7165 37.6604 13.5356 37.989 13.2137L41.489 9.78514C41.652 9.6259 41.7813 9.43673 41.8695 9.22846C41.9577 9.02019 42.0031 8.79692 42.0031 8.57143C42.0031 8.34594 41.9577 8.12267 41.8695 7.9144C41.7813 7.70613 41.652 7.51696 41.489 7.35771ZM39.011 40.6423C39.3391 40.9642 39.7844 41.1452 40.2488 41.1455C40.7131 41.1458 41.1586 40.9654 41.4873 40.644C41.8159 40.3226 42.0006 39.8864 42.001 39.4315C42.0013 38.9766 41.8171 38.5402 41.489 38.2183L37.989 34.7897C37.6609 34.4678 37.2156 34.2868 36.7512 34.2865C36.2869 34.2862 35.8414 34.4666 35.5127 34.788C35.1841 35.1094 34.9994 35.5456 34.999 36.0005C34.9987 36.4554 35.1829 36.8918 35.511 37.2137L39.011 40.6423Z" fill="#E7D110"/>
</svg>
